<svg width="255" height="277" viewBox="0 0 255 277" fill="none" xmlns="http://www.w3.org/2000/svg">
<path d="M182.651 36.718C206.21 51.0015 231.437 65.8415 244.422 88.658C257.408 111.475 257.964 142.268 244.793 163.971C231.623 185.86 204.54 198.845 180.611 219.621C156.867 240.397 136.091 269.15 111.048 275.086C86.191 281.207 56.6965 264.512 37.4045 242.252C17.927 219.992 8.4665 192.167 4.0145 165.641C-0.623005 139.114 -0.25201 114.072 4.38549 87.545C9.02299 60.833 17.927 32.8225 37.219 16.8695C56.511 1.10201 86.0055 -2.42249 111.604 2.95701C137.389 8.15101 159.278 22.249 182.651 36.718Z" fill="#7028E5" fill-opacity="0.1"/>
</svg>
