<svg width="577" height="307" viewBox="0 0 577 307" fill="none" xmlns="http://www.w3.org/2000/svg">
<g clip-path="url(#clip0)">
<path opacity="0.1" d="M532.76 242.761C532.118 244.146 531.477 245.512 530.838 246.86C529.84 248.954 528.856 251.008 527.884 253.021C527.452 253.913 527.02 254.788 526.599 255.663C521.833 265.397 517.384 274.005 513.605 281.085C510.176 287.5 505.084 292.875 498.864 296.647C492.643 300.419 485.523 302.449 478.248 302.524L394.218 303.438H393.331L386.128 303.516L379.966 303.583L361.071 303.787H360.307L350.687 303.893H350.394L291.104 304.535L238.182 305.089L232.026 305.156L193.793 305.571H193.748L168.952 305.837H168.686L90.2804 306.685L66.8252 306.94C61.8198 306.996 56.8355 306.282 52.0472 304.823C43.7146 302.307 36.2261 297.567 30.3873 291.112C20.3136 280.016 12.9718 267.07 8.04023 253.021C7.32729 250.993 6.66236 248.94 6.04546 246.86C-11.0265 189.163 9.78567 114.725 47.2431 64.9106C48.8131 62.8276 50.4089 60.7963 52.0306 58.8168L52.0694 58.7725C63.5892 44.6349 76.5054 32.824 90.2638 24.4256C114.644 9.51798 141.657 5.3188 168.226 17.8332C190.706 28.4254 211.696 33.4057 232.042 34.7574C234.098 34.8903 236.154 34.99 238.199 35.051C284.871 36.519 328.612 19.7057 379.977 8.8532C382.022 8.42109 384.072 7.99453 386.139 7.59012C422.782 0.299723 463.431 -3.54491 511.771 4.53768C516.793 5.35794 521.749 6.5429 526.599 8.08316C528.73 8.7701 530.784 9.50874 532.76 10.2991C555.833 19.6835 568.417 37.0232 573.764 58.7503C574.27 60.7668 574.708 62.8184 575.077 64.9051C584.558 117.168 556.792 191.301 532.76 242.761Z" fill="#7028E5"/>
<g opacity="0.1">
<path opacity="0.1" d="M90.2636 24.425V306.745L66.8084 307C61.803 307.057 56.8187 306.343 52.0304 304.884V58.7719H52.0692C63.589 44.6177 76.5052 32.8068 90.2636 24.425Z" fill="#7028E5"/>
<path opacity="0.1" d="M575.105 64.91H47.2429C48.8129 62.827 50.4087 60.7958 52.0304 58.8162V58.7719H573.792C574.298 60.7773 574.736 62.8234 575.105 64.91Z" fill="#7028E5"/>
<path opacity="0.1" d="M532.76 10.3041V246.854H530.838C529.84 248.948 528.856 251.002 527.884 253.014C527.452 253.906 527.02 254.782 526.599 255.657V8.06598C528.73 8.75292 530.784 9.49894 532.76 10.3041Z" fill="#7028E5"/>
<path opacity="0.1" d="M386.139 7.57292V303.538L379.977 303.604V8.836C382.022 8.40389 384.072 7.97733 386.139 7.57292Z" fill="#7028E5"/>
<path opacity="0.1" d="M238.198 35.0338V305.144L232.042 305.211V34.7402C234.098 34.8731 236.154 34.9507 238.198 35.0338Z" fill="#7028E5"/>
<path opacity="0.1" d="M530.838 246.86C529.84 248.954 528.856 251.007 527.884 253.02H8.04005C7.3271 250.992 6.66218 248.939 6.04528 246.86H530.838Z" fill="#7028E5"/>
</g>
<path d="M127.776 147.265H117.249V179.208H127.776V147.265Z" fill="#3F3D56"/>
<path d="M411.107 145.603H400.579V179.396H411.107V145.603Z" fill="#3F3D56"/>
<path d="M478.248 295.632V302.834L394.068 303.61L393.17 303.626L361.176 303.92L360.412 303.931L350.687 304.014H350.399L291.121 304.563L193.815 305.466H193.732L168.991 305.698L168.725 305.704L58.7905 306.712V298.402L84.6395 282.891L136.504 282.459L137.612 282.453L137.978 282.448L139.086 282.431L163.987 282.226L165.101 282.22L165.456 282.215L166.564 282.209L174.548 282.143L174.759 282.137L194.457 281.971H194.618L348.327 280.675L352.089 280.647H352.466L355.336 280.619L376.198 280.448L377.306 280.431L378.331 280.42H378.863L385.352 280.37L386.638 280.354L388.361 280.342L393.763 280.293L402.335 280.221L403.443 280.209L405.372 280.198H405.732L447.129 279.844L478.248 295.632Z" fill="#65617D"/>
<path opacity="0.2" d="M478.248 295.632V302.834L394.068 303.61L393.17 303.626L361.176 303.92L360.412 303.931L350.687 304.014H350.399L291.121 304.563L193.815 305.466H193.732L168.991 305.698L168.725 305.704L58.7905 306.712V298.402L84.6395 282.891L136.504 282.459L137.612 282.453L137.978 282.448L139.086 282.431L163.987 282.226L165.101 282.22L165.456 282.215L166.564 282.209L174.548 282.143L174.759 282.137L194.457 281.971H194.618L348.327 280.675L352.089 280.647H352.466L355.336 280.619L376.198 280.448L377.306 280.431L378.331 280.42H378.863L385.352 280.37L386.638 280.354L388.361 280.342L393.763 280.293L402.335 280.221L403.443 280.209L405.372 280.198H405.732L447.129 279.844L478.248 295.632Z" fill="black"/>
<path d="M164.07 267.939V281.506C164.071 282.148 163.889 282.778 163.545 283.321C163.202 283.864 162.712 284.299 162.131 284.575C161.699 284.784 161.226 284.898 160.746 284.907L141.407 285.317C140.891 285.33 140.379 285.221 139.911 285.001C139.321 284.731 138.82 284.296 138.469 283.749C138.119 283.202 137.933 282.565 137.933 281.916V267.939H164.07Z" fill="#3F3D56"/>
<path opacity="0.1" d="M164.07 267.939V281.506C164.071 282.148 163.889 282.778 163.545 283.321C163.202 283.864 162.712 284.299 162.131 284.575C161.699 284.784 161.226 284.898 160.746 284.907L141.407 285.317C140.891 285.33 140.379 285.221 139.911 285.001C139.321 284.731 138.82 284.296 138.469 283.749C138.119 283.202 137.933 282.565 137.933 281.916V267.939H164.07Z" fill="black"/>
<path d="M165.179 267.939V281.506C165.179 282.148 164.997 282.778 164.653 283.321C164.31 283.864 163.82 284.299 163.239 284.575C162.807 284.784 162.334 284.898 161.854 284.907L142.516 285.317C141.999 285.33 141.487 285.221 141.02 285.001C140.429 284.731 139.928 284.296 139.578 283.749C139.227 283.202 139.041 282.565 139.041 281.916V267.939H165.179Z" fill="#3F3D56"/>
<path d="M403.443 267.939H377.306V285.389H403.443V267.939Z" fill="#3F3D56"/>
<path opacity="0.1" d="M403.443 267.939H377.306V285.389H403.443V267.939Z" fill="black"/>
<path d="M402.335 267.939H376.198V285.389H402.335V267.939Z" fill="#3F3D56"/>
<path opacity="0.1" d="M127.776 147.259V150.434L117.249 150.162V147.259H127.776Z" fill="black"/>
<path d="M197.073 57.8357L184.423 148.689C184.342 149.269 184.051 149.799 183.604 150.179C183.158 150.558 182.587 150.759 182.001 150.744L80.7108 148.118L78.7881 148.068C78.4533 148.06 78.124 147.982 77.8216 147.838C77.5191 147.694 77.2504 147.489 77.0329 147.234C76.8154 146.979 76.654 146.682 76.5593 146.361C76.4645 146.04 76.4385 145.702 76.483 145.37L90.6847 50.2628C90.7763 49.6736 91.0855 49.1402 91.5512 48.7679C92.0169 48.3956 92.6054 48.2115 93.2004 48.2518L194.856 55.1323C195.184 55.1513 195.505 55.238 195.798 55.3871C196.09 55.5361 196.349 55.7442 196.557 55.9983C196.766 56.2523 196.919 56.5467 197.008 56.863C197.096 57.1792 197.119 57.5104 197.073 57.8357Z" fill="#65617D"/>
<path d="M97.4836 54.9328L86.7728 138.767L179.862 141.72L191.31 60.8383L97.4836 54.9328Z" fill="#7028E5"/>
<path d="M323.564 53.6365H216.062C214.431 53.6365 213.109 54.9585 213.109 56.5892V146.705C213.109 148.336 214.431 149.658 216.062 149.658H323.564C325.195 149.658 326.517 148.336 326.517 146.705V56.5892C326.517 54.9585 325.195 53.6365 323.564 53.6365Z" fill="#65617D"/>
<path d="M321.525 60.1015H218.461V140.058H321.525V60.1015Z" fill="#7028E5"/>
<path opacity="0.1" d="M411.107 145.597V147.697L400.579 147.913V145.597H411.107Z" fill="black"/>
<path d="M458.61 143.825C458.625 144.054 458.594 144.284 458.517 144.501C458.441 144.718 458.322 144.918 458.166 145.088C458.011 145.257 457.823 145.394 457.614 145.489C457.404 145.584 457.178 145.636 456.948 145.642L353.219 147.786C352.789 147.795 352.37 147.64 352.049 147.354C351.727 147.067 351.526 146.669 351.485 146.24L342.57 53.57C342.547 53.3401 342.572 53.1081 342.643 52.8881C342.713 52.6681 342.827 52.4647 342.979 52.2901C343.13 52.1156 343.315 51.9735 343.523 51.8726C343.731 51.7717 343.957 51.7141 344.187 51.7031L447.129 46.5843L448.237 46.5289C448.678 46.5057 449.11 46.6545 449.443 46.9439C449.776 47.2333 449.983 47.6407 450.021 48.0801L458.61 143.825Z" fill="#65617D"/>
<path d="M348.493 57.1487L442.508 52.5285L450.448 136.734L357.176 138.95L348.493 57.1487Z" fill="#7028E5"/>
<path opacity="0.1" d="M458.61 143.825C458.625 144.054 458.594 144.284 458.517 144.501C458.441 144.718 458.322 144.918 458.166 145.088C458.011 145.257 457.823 145.394 457.614 145.489C457.404 145.584 457.178 145.636 456.948 145.642L447.129 46.5843L448.237 46.5289C448.678 46.5057 449.11 46.6545 449.443 46.9439C449.776 47.2333 449.983 47.6407 450.021 48.0801L458.61 143.825Z" fill="black"/>
<path opacity="0.1" d="M93.217 48.2463L80.7109 148.118L78.7881 148.068C78.4533 148.06 78.124 147.982 77.8216 147.838C77.5191 147.694 77.2504 147.489 77.0329 147.234C76.8154 146.979 76.654 146.682 76.5593 146.361C76.4645 146.04 76.4385 145.702 76.483 145.37L90.6847 50.2628C90.7752 49.6696 91.0862 49.1324 91.5557 48.7585C92.0252 48.3847 92.6185 48.2017 93.217 48.2463Z" fill="black"/>
<path opacity="0.1" d="M127.776 169.746H117.249V179.208H127.776V169.746Z" fill="black"/>
<path opacity="0.1" d="M165.179 267.933V270.687L139.041 271.385V267.933H165.179Z" fill="black"/>
<path d="M211.308 173.042V266.221C211.301 266.79 211.076 267.335 210.679 267.742C210.282 268.149 209.743 268.388 209.174 268.41L102.98 271.235H102.953C102.374 271.228 101.822 270.995 101.413 270.586C101.004 270.177 100.771 269.625 100.764 269.047V173.042C100.771 172.464 101.004 171.911 101.413 171.502C101.822 171.094 102.374 170.861 102.953 170.853H209.119C209.697 170.861 210.25 171.094 210.659 171.502C211.068 171.911 211.301 172.464 211.308 173.042Z" fill="#65617D"/>
<path opacity="0.1" d="M102.98 170.853V271.235H102.953C102.374 271.228 101.822 270.995 101.413 270.586C101.004 270.177 100.771 269.625 100.764 269.047V173.042C100.771 172.464 101.004 171.911 101.413 171.502C101.822 171.094 102.374 170.861 102.953 170.853H102.98Z" fill="black"/>
<path d="M107.829 176.803H206.182V258.931L107.829 261.147V176.803Z" fill="#D4DFEC"/>
<path opacity="0.1" d="M411.107 169.746H400.579V179.396H411.107V169.746Z" fill="black"/>
<path opacity="0.1" d="M402.335 267.933V271.484L376.198 270.786V267.933H402.335Z" fill="black"/>
<path d="M436.828 173.042V269.047C436.821 269.63 436.584 270.186 436.169 270.596C435.754 271.005 435.195 271.235 434.612 271.235L328.395 268.41C327.827 268.388 327.288 268.149 326.891 267.742C326.494 267.335 326.269 266.79 326.262 266.221V173.042C326.269 172.464 326.502 171.911 326.911 171.502C327.32 171.094 327.873 170.861 328.451 170.853H434.617C435.199 170.855 435.758 171.085 436.171 171.495C436.585 171.904 436.821 172.46 436.828 173.042Z" fill="#65617D"/>
<path opacity="0.1" d="M436.828 173.042V269.047C436.821 269.63 436.584 270.186 436.169 270.596C435.754 271.005 435.195 271.235 434.612 271.235V170.853C435.195 170.853 435.754 171.083 436.169 171.493C436.584 171.902 436.821 172.459 436.828 173.042Z" fill="black"/>
<path d="M429.763 176.803H331.41V258.931L429.763 261.147V176.803Z" fill="#D4DFEC"/>
<path d="M323.514 173.042V266.221C323.507 266.79 323.282 267.335 322.885 267.742C322.488 268.149 321.949 268.388 321.381 268.41L215.186 271.235C214.603 271.235 214.044 271.005 213.629 270.596C213.214 270.186 212.977 269.63 212.97 269.047V173.042C212.977 172.464 213.21 171.911 213.619 171.502C214.028 171.094 214.581 170.861 215.159 170.853H321.325C321.903 170.861 322.456 171.094 322.865 171.502C323.274 171.911 323.507 172.464 323.514 173.042Z" fill="#65617D"/>
<path d="M220.035 176.803H318.388V258.931L220.035 261.147V176.803Z" fill="#D4DFEC"/>
<path opacity="0.1" d="M478.248 295.632V302.834L394.068 303.61L393.17 303.626L361.176 303.92L360.412 303.931L350.687 304.014H350.399L291.121 304.563L193.815 305.466H193.732L168.991 305.698L168.725 305.704L58.7905 306.712V298.402L171.002 297.665H171.268L193.981 297.51H194.086L350.942 296.474H351.103L351.197 296.469H351.457L354.112 296.452H354.921L396.196 296.175L398.634 296.164L399.177 296.159L478.248 295.632Z" fill="black"/>
<path d="M269.993 179.208C285.701 179.208 298.435 166.476 298.435 150.772C298.435 135.067 285.701 122.336 269.993 122.336C254.285 122.336 241.551 135.067 241.551 150.772C241.551 166.476 254.285 179.208 269.993 179.208Z" fill="#FBBEBE"/>
<path d="M298.441 208.94C298.441 208.94 243.307 215.588 248.571 208.94C250.477 206.535 251.004 199.411 250.899 191.295C250.865 188.83 250.777 186.276 250.649 183.734C250.04 171.546 248.571 159.635 248.571 159.635C248.571 159.635 296.778 136.922 291.237 154.926C289.021 162.2 289.747 172.416 291.431 182.005C291.924 184.803 292.495 187.545 293.094 190.149C294.554 196.499 296.339 202.771 298.441 208.94Z" fill="#FBBEBE"/>
<path opacity="0.1" d="M298.441 208.94C298.441 208.94 243.307 215.588 248.571 208.94C250.477 206.535 251.004 199.411 250.899 191.295C259.304 187.706 269.998 190.381 269.998 190.381C281.258 188.138 288.478 188.575 293.094 190.149C294.554 196.499 296.339 202.771 298.441 208.94Z" fill="black"/>
<path d="M193.792 306.091V305.626L291.104 304.568L350.393 304.014H350.56L350.499 304.834L350.582 304.014H350.687V303.92L351.446 296.469L351.734 293.649L351.823 292.768L351.901 292.031L355.325 280.614L358.749 269.213L361.631 259.612L366.03 244.943C366.03 244.943 363.537 239.126 362.152 237.464C360.766 235.802 359.381 224.446 359.381 224.446C359.381 224.446 347.556 213.183 342.387 211.887C340.22 211.333 335.942 210.596 331.399 209.671C329.698 209.328 327.952 208.962 326.273 208.563C325.326 208.347 324.395 208.12 323.503 207.893C321.766 207.459 320.055 206.93 318.377 206.308C317.497 205.989 316.66 205.563 315.884 205.04C311.811 202.054 301.605 201.716 301.211 201.716C301.21 201.703 301.21 201.69 301.211 201.677V201.627C301.225 201.395 301.225 201.162 301.211 200.929C301.211 200.708 301.211 200.447 301.161 200.154C301.161 200.065 301.161 199.971 301.123 199.877C301.095 199.677 301.062 199.467 301.012 199.245C300.995 199.146 300.973 199.048 300.945 198.951C300.785 198.284 300.552 197.636 300.253 197.018C300.214 196.929 300.164 196.835 300.12 196.747C299.848 196.235 299.533 195.747 299.178 195.29C299.106 195.195 299.028 195.096 298.945 195.002C298.491 194.466 297.986 193.977 297.438 193.539C297.288 193.423 297.133 193.301 296.972 193.19C296.883 193.117 296.788 193.051 296.69 192.991L296.197 192.669L295.737 192.403C295.332 192.182 294.905 191.966 294.44 191.761C294.296 191.694 294.141 191.633 293.986 191.572C293.83 191.511 293.587 191.417 293.382 191.34H293.348L292.933 191.174C292.617 191.068 292.296 190.974 291.958 190.88L291.442 190.747L290.888 190.62L290.334 190.503C289.78 190.392 289.187 190.293 288.566 190.215L287.935 190.138L287.287 190.071L286.616 190.016L285.663 189.96L284.555 189.922C279.667 189.921 274.793 190.439 270.015 191.467C266.696 190.729 263.296 190.416 259.897 190.536H259.415L258.861 190.57H258.506L257.792 190.636C257.553 190.636 257.309 190.686 257.071 190.719C256.833 190.753 256.584 190.78 256.345 190.819L255.98 190.88C255.619 190.941 255.254 191.007 254.871 191.085C254.75 191.107 254.628 191.135 254.506 191.168C254.024 191.273 253.542 191.401 253.065 191.545C252.827 191.611 252.589 191.689 252.35 191.772C252.228 191.805 252.112 191.849 251.996 191.894L251.641 192.021L251.292 192.16L250.876 192.326C250.666 192.414 250.461 192.509 250.256 192.608C250.139 192.658 250.023 192.714 249.912 192.775C249.801 192.835 249.685 192.885 249.58 192.946C248.327 193.594 247.169 194.41 246.139 195.373L245.856 195.644L245.579 195.927C245.485 196.021 245.396 196.121 245.308 196.22C244.946 196.615 244.61 197.031 244.299 197.467C244.21 197.583 244.127 197.699 244.044 197.821C243.693 198.34 243.374 198.88 243.091 199.439C243.019 199.572 242.953 199.71 242.886 199.843C242.434 200.779 242.063 201.752 241.778 202.752C241.674 203.121 241.58 203.49 241.495 203.86C241.495 203.86 229.765 209.034 220.035 212.779C217.447 213.776 215.009 214.679 212.97 215.36C212.377 215.56 211.823 215.743 211.308 215.914C210.19 216.318 209.027 216.586 207.845 216.712C207.287 216.721 206.732 216.773 206.182 216.867C201.711 217.593 194.047 220.745 193.211 223.908C193.143 224.161 193.124 224.424 193.155 224.684C193.155 224.684 193.155 224.723 193.155 224.745C193.709 228.623 189.831 228.069 189.831 228.069C189.831 228.069 188.445 238.317 186.506 241.087C185.104 243.082 184.146 247.53 184.024 250.887C183.954 251.933 184.036 252.984 184.267 254.006C184.267 254.034 184.267 254.062 184.267 254.084C184.489 254.826 183.957 256.854 183.054 259.452C182.073 262.305 180.644 265.85 179.269 269.196C177.197 274.249 175.247 278.836 175.125 279.844C175.075 280.293 174.931 281.096 174.731 282.132C173.922 286.353 172.127 294.391 171.24 297.643C170.581 300.07 169.622 303.394 168.963 305.676C168.963 305.742 168.924 305.809 168.908 305.87L193.748 305.626V306.091H193.826H193.792Z" fill="#7028E5"/>
<path opacity="0.1" d="M202.858 240.794C202.858 240.794 234.442 257.136 245.801 255.197L202.858 240.794Z" fill="black"/>
<path opacity="0.1" d="M267.134 234.146C267.134 234.146 297.887 244.118 308.138 245.502C318.388 246.887 267.134 234.146 267.134 234.146Z" fill="black"/>
<path opacity="0.1" d="M301.244 202.059C285.175 205.018 254.921 204.38 241.844 203.932C246.637 186.758 270.01 192.597 270.01 192.597C298.939 186.825 301.156 198.802 301.244 202.059Z" fill="black"/>
<path d="M301.244 200.951C285.175 203.91 254.921 203.272 241.844 202.824C246.637 185.65 270.01 191.489 270.01 191.489C298.939 185.717 301.156 197.694 301.244 200.951Z" fill="#7028E5"/>
<path d="M386.543 276.664C386.543 276.664 405.471 273.756 405.843 282.065C406.214 290.375 396.19 296.181 396.19 296.181L386.543 276.664Z" fill="#FBBEBE"/>
<path opacity="0.1" d="M291.431 182.005C290.617 182.369 289.785 182.691 288.938 182.969C282.965 185.03 276.941 187.107 270.652 187.861C264.363 188.614 257.764 187.949 252.278 184.814C251.702 184.489 251.147 184.128 250.616 183.734C250.006 171.546 248.538 159.635 248.538 159.635C248.538 159.635 296.745 136.922 291.204 154.926C288.999 162.2 289.747 172.416 291.431 182.005Z" fill="black"/>
<path d="M262.191 106.326C261.4 106.535 260.572 106.556 259.771 106.387C258.971 106.219 258.221 105.866 257.581 105.356L258.734 106.957C258.054 107.036 257.366 106.965 256.717 106.749C256.068 106.534 255.474 106.18 254.977 105.711C254.872 107.144 254.932 108.584 255.154 110.004C253.247 110.096 251.369 109.507 249.857 108.342C249.827 108.842 249.952 109.339 250.213 109.766C250.475 110.193 250.861 110.529 251.32 110.73C249.404 110.501 247.47 110.977 245.88 112.069C244.289 113.16 243.15 114.793 242.676 116.663L245.568 116.929C243.295 117.414 241.255 118.659 239.783 120.458C238.897 121.566 238.221 122.984 238.608 124.336C238.996 125.687 240.869 126.552 241.889 125.588C240.438 127.318 239.384 129.345 238.8 131.526C238.217 133.707 238.117 135.989 238.509 138.213C238.772 139.16 238.858 140.148 238.764 141.127C238.581 142.041 238.004 142.833 237.716 143.725C237.162 145.343 237.689 147.099 238.182 148.711L240.781 157.253C241.723 160.339 242.659 163.43 243.889 166.416C244.76 168.304 245.501 170.249 246.105 172.238C246.804 174.92 246.831 177.856 248.322 180.199C249.343 181.674 250.709 182.877 252.3 183.706C257.78 186.841 264.402 187.506 270.674 186.753C276.947 185.999 282.965 183.922 288.932 181.861C290.258 181.462 291.531 180.904 292.722 180.199C296.85 177.496 297.77 171.967 298.54 167.097C299.399 161.668 300.546 156.251 302.58 151.143C303.788 148.101 305.35 145.016 305.084 141.758C304.746 137.432 301.322 133.925 300.474 129.67C300.19 128.248 300.204 126.783 300.513 125.366C300.776 124.522 300.923 123.646 300.951 122.762C300.857 120.979 299.394 119.605 298.02 118.458C295.038 115.969 291.961 113.616 288.788 111.4C288.627 110.292 290.135 109.816 290.816 108.94C291.78 107.705 290.783 105.744 289.32 105.168C287.857 104.592 286.217 104.968 284.693 105.351C284.793 104.571 284.637 103.78 284.251 103.095C283.865 102.411 283.267 101.869 282.548 101.551C281.829 101.233 281.027 101.156 280.26 101.33C279.494 101.505 278.804 101.922 278.293 102.52C277.889 101.592 277.242 100.79 276.422 100.198C275.601 99.6051 274.636 99.2439 273.628 99.1516C269.954 98.8636 269.882 101.672 267.533 103.218C265.183 104.763 263.244 102.725 261.438 101.24C261.106 102.079 261.001 102.991 261.133 103.884C261.265 104.777 261.63 105.619 262.191 106.326Z" fill="#3F3D56"/>
<path d="M400.579 293.283C400.579 293.283 400.086 294.458 399.177 296.159C397.802 298.775 396.129 301.223 394.19 303.454L394.04 303.615H393.143L361.149 303.909H360.384L360.29 303.798L354.084 296.436L351.746 293.66L351.651 293.544L351.452 293.311L351.341 293.178L351.197 293.006L346.648 287.611L348.31 280.686L351.142 269.019L351.214 268.736L351.768 266.521L352.161 264.859L353.48 259.441L358.001 240.799L366.036 244.954L374.508 259.912L379.057 267.944H381.551C382.022 267.944 383.102 268.853 384.188 269.9C384.576 270.271 384.964 270.664 385.297 271.008C386.283 272.027 387.064 272.902 387.064 272.902C387.064 272.902 391.104 272.991 392.19 276.171C392.246 276.325 392.292 276.482 392.328 276.642C392.689 277.892 393.158 279.108 393.73 280.276C394.445 281.833 395.342 283.6 396.251 285.367C397.941 288.608 399.659 291.693 400.291 292.812L400.368 292.951L400.579 293.283Z" fill="#7028E5"/>
<path opacity="0.1" d="M352.981 268.271L352.926 269.063V269.119L352.832 270.393L352.095 280.647L351.202 293.001L350.948 296.48L350.394 303.925V304.02L291.104 304.574L193.809 305.626V306.091H193.732V305.626V305.471L193.981 297.516L194.457 281.971L194.867 268.792L194.906 267.479C194.93 266.687 195.116 265.907 195.452 265.189C195.787 264.471 196.266 263.828 196.858 263.301C197.45 262.774 198.144 262.373 198.896 262.122C199.648 261.872 200.444 261.778 201.234 261.845C203.849 262.067 207.246 262.338 211.308 262.626L212.97 262.748C236.425 264.377 279.773 266.482 323.514 263.856C324.434 263.806 325.359 263.751 326.284 263.684C333.067 263.258 339.843 262.709 346.554 262.022C347.402 261.933 348.259 262.032 349.066 262.31C349.872 262.588 350.607 263.04 351.22 263.633C351.833 264.226 352.308 264.946 352.612 265.743C352.917 266.539 353.043 267.393 352.981 268.243V268.271Z" fill="black"/>
<path d="M193.792 306.092V305.626L291.104 304.568L350.393 304.014H350.56V303.92L351.114 296.474L351.352 293.15L352.261 280.625L352.976 270.709V270.465C353.009 270.008 352.988 269.549 352.915 269.097C352.918 269.078 352.918 269.06 352.915 269.041C352.762 268.106 352.382 267.223 351.806 266.471C351.196 265.688 350.397 265.075 349.484 264.687C348.57 264.299 347.573 264.15 346.587 264.255C339.877 264.942 333.1 265.49 326.318 265.917C325.392 265.983 324.467 266.039 323.547 266.088C279.806 268.687 236.459 266.581 213.003 264.98L211.341 264.859C207.279 264.571 203.883 264.305 201.267 264.077C199.829 263.956 198.396 264.372 197.246 265.245C196.096 266.117 195.309 267.385 195.039 268.803C194.983 269.103 194.95 269.407 194.939 269.712L194.563 281.988L194.047 297.538L193.804 305.493V305.648V306.114L193.792 306.092Z" fill="#3F3D56"/>
<path opacity="0.1" d="M353.147 272.155L352.466 280.647L351.452 293.306L351.197 296.474L350.643 303.571L350.61 303.925V304.02L350.526 304.839L350.587 304.02H350.427L291.138 304.574L193.809 305.626V305.471L194.081 297.516L194.635 281.971L194.989 271.639C195.007 271.052 195.171 270.478 195.467 269.97C195.763 269.462 196.182 269.036 196.685 268.731C197.312 268.346 198.046 268.172 198.779 268.232C199.943 268.327 201.373 268.437 203.04 268.559C205.75 268.759 209.091 268.991 212.981 269.235C220.184 269.689 229.222 270.177 239.578 270.576C268.392 271.684 307.29 272.055 344.237 268.82C345.9 268.676 347.617 268.515 349.296 268.354C349.961 268.288 350.631 268.415 351.225 268.72C351.393 268.804 351.553 268.904 351.701 269.019C352.184 269.368 352.566 269.838 352.809 270.382C352.866 270.49 352.912 270.603 352.948 270.72C353.114 271.179 353.182 271.668 353.147 272.155Z" fill="black"/>
<path opacity="0.1" d="M165.179 279.739V281.506C165.179 282.148 164.997 282.778 164.653 283.321C164.31 283.864 163.82 284.299 163.239 284.575L141.02 285.001C140.429 284.731 139.928 284.296 139.578 283.749C139.227 283.202 139.041 282.566 139.041 281.916V280.254L165.179 279.739Z" fill="black"/>
<path d="M165.456 285.616L136.504 286.17V281.367L165.456 280.813V285.616Z" fill="#3F3D56"/>
<path opacity="0.1" d="M165.456 285.616L136.504 286.17V281.367L165.456 280.813V285.616Z" fill="black"/>
<path d="M166.564 285.616L137.612 286.17V281.367L166.564 280.813V285.616Z" fill="#3F3D56"/>
<g opacity="0.1">
<path opacity="0.1" d="M262.418 104.509C261.877 103.805 261.517 102.98 261.371 102.104C261.237 102.96 261.317 103.835 261.604 104.653C261.879 104.627 262.151 104.579 262.418 104.509Z" fill="black"/>
<path opacity="0.1" d="M255.381 108.187C255.277 107.508 255.208 106.824 255.176 106.137C255.176 106.819 255.176 107.506 255.176 108.193L255.381 108.187Z" fill="black"/>
<path opacity="0.1" d="M300.541 126.673C300.571 126.18 300.638 125.689 300.74 125.205C301.002 124.363 301.151 123.489 301.183 122.607C301.171 122.409 301.141 122.213 301.095 122.02C301.001 122.53 300.851 123.039 300.74 123.543C300.519 124.571 300.452 125.626 300.541 126.673Z" fill="black"/>
<path opacity="0.1" d="M289.015 109.555L289.619 109.993C290.128 109.625 290.605 109.213 291.043 108.763C291.252 108.475 291.381 108.137 291.418 107.783C291.455 107.429 291.398 107.072 291.254 106.747C291.199 106.873 291.128 106.992 291.043 107.101C290.362 107.977 288.855 108.459 289.015 109.555Z" fill="black"/>
<path opacity="0.1" d="M243.485 114.885C243.282 115.289 243.121 115.712 243.003 116.148C243.869 115.664 244.803 115.311 245.773 115.101L243.485 114.885Z" fill="black"/>
<path opacity="0.1" d="M251.126 108.857C250.762 108.657 250.413 108.429 250.084 108.176C250.07 108.395 250.087 108.615 250.134 108.83C250.465 108.814 250.796 108.823 251.126 108.857Z" fill="black"/>
<path opacity="0.1" d="M305.3 141.498C305.073 144.185 303.821 146.772 302.807 149.32C300.773 154.428 299.626 159.846 298.768 165.28C297.997 170.15 297.105 175.679 292.949 178.377C291.762 179.086 290.491 179.644 289.165 180.038C283.192 182.105 277.169 184.177 270.879 184.93C264.59 185.684 257.991 185.024 252.505 181.889C250.915 181.059 249.55 179.856 248.527 178.382C247.047 176.039 247.02 173.103 246.31 170.421C245.706 168.43 244.965 166.483 244.094 164.593C242.869 161.613 241.928 158.5 240.991 155.436C240.123 152.589 239.257 149.739 238.392 146.888C238.108 146.031 237.896 145.15 237.761 144.257C237.545 145.675 237.966 147.16 238.392 148.55C239.257 151.405 240.123 154.254 240.991 157.098C241.928 160.184 242.869 163.275 244.094 166.255C244.965 168.145 245.706 170.092 246.31 172.083C247.009 174.765 247.036 177.701 248.527 180.044C249.55 181.518 250.915 182.721 252.505 183.551C257.991 186.686 264.607 187.346 270.879 186.592C277.152 185.839 283.17 183.767 289.165 181.7C290.491 181.306 291.762 180.748 292.949 180.038C297.078 177.341 297.997 171.812 298.768 166.942C299.626 161.508 300.773 156.09 302.807 150.982C304.015 147.946 305.577 144.861 305.312 141.598C305.312 141.564 305.3 141.531 305.3 141.498Z" fill="black"/>
<path opacity="0.1" d="M238.98 139.354C238.98 139.354 238.98 139.315 238.98 139.293C239.08 138.316 238.993 137.329 238.725 136.385C238.614 135.777 238.542 135.163 238.509 134.546C238.445 135.717 238.517 136.892 238.725 138.047C238.813 138.479 238.913 138.916 238.98 139.354Z" fill="black"/>
<path opacity="0.1" d="M240.67 125.804C241.096 125.088 241.58 124.408 242.116 123.771C241.102 124.74 239.229 123.876 238.836 122.53C238.691 123.074 238.691 123.647 238.836 124.192C238.972 124.598 239.214 124.961 239.536 125.244C239.858 125.528 240.249 125.72 240.67 125.804Z" fill="black"/>
</g>
<path opacity="0.1" d="M379.063 267.939C379.063 267.939 380.819 274.31 379.063 279.849C377.306 285.389 379.063 267.939 379.063 267.939Z" fill="black"/>
<path opacity="0.1" d="M386.543 274.437C386.543 274.437 387.28 282.525 385.618 283.96C383.956 285.395 386.543 274.437 386.543 274.437Z" fill="black"/>
<path d="M110.261 189.938L166.564 189.384" stroke="#7028E5" stroke-width="2" stroke-miterlimit="10"/>
<path d="M110.261 196.846L166.564 196.298" stroke="#7028E5" stroke-width="2" stroke-miterlimit="10"/>
<path d="M110.261 203.76L166.564 203.206" stroke="#7028E5" stroke-width="2" stroke-miterlimit="10"/>
</g>
<defs>
<clipPath id="clip0">
<rect width="577" height="307" fill="white"/>
</clipPath>
</defs>
</svg>
