<svg width="124" height="68" viewBox="0 0 124 68" fill="none" xmlns="http://www.w3.org/2000/svg">
<path d="M18.9157 58.1032C16.1622 60.1508 15.3818 63.7536 15.3818 63.7536C15.3818 63.7536 19.0658 64.0365 21.8193 61.9888C24.5728 59.9412 25.3532 56.3384 25.3532 56.3384C25.3532 56.3384 21.6692 56.0555 18.9157 58.1032Z" fill="#F1F1F1"/>
<path d="M20.0627 59.0646C18.7393 62.2261 15.425 63.8553 15.425 63.8553C15.425 63.8553 14.2562 60.3586 15.5796 57.1971C16.903 54.0355 20.2173 52.4063 20.2173 52.4063C20.2173 52.4063 21.3861 55.903 20.0627 59.0646Z" fill="#F1F1F1"/>
<path d="M99.2844 49.925C98.9919 47.959 98.9146 45.9671 99.0539 43.9844L99.2844 40.7031C98.0143 43.2243 98.3013 46.5428 99.2844 49.925V49.925Z" fill="#CACACA"/>
<path d="M100.275 50.4739C100.134 49.3007 100.097 48.1175 100.164 46.9378L100.275 44.9846C99.6638 46.4854 99.8019 48.4606 100.275 50.4739Z" fill="#CACACA"/>
<path d="M104.677 52.8894V53.9872C104.677 54.0744 104.642 54.1579 104.58 54.2196C104.518 54.2813 104.435 54.3161 104.347 54.3166H103.797C103.783 54.3165 103.768 54.3193 103.755 54.3248C103.741 54.3303 103.729 54.3384 103.719 54.3486C103.709 54.3588 103.701 54.3709 103.695 54.3843C103.69 54.3976 103.687 54.4119 103.687 54.4264V63.4287C103.686 63.5159 103.652 63.5994 103.59 63.6611C103.528 63.7227 103.444 63.7576 103.357 63.758H96.6437C96.5561 63.758 96.4722 63.7232 96.4103 63.6615C96.3484 63.5997 96.3136 63.516 96.3135 63.4287V54.4264C96.3134 54.3973 96.3018 54.3694 96.2812 54.3488C96.2606 54.3283 96.2326 54.3167 96.2035 54.3166H95.5432C95.4556 54.3165 95.3717 54.2818 95.3098 54.22C95.2479 54.1583 95.2131 54.0746 95.213 53.9872V52.8894C95.213 52.8461 95.2214 52.8033 95.238 52.7633C95.2546 52.7233 95.2789 52.687 95.3096 52.6564C95.3403 52.6258 95.3767 52.6015 95.4168 52.585C95.4568 52.5685 95.4998 52.56 95.5432 52.56H104.347C104.435 52.5603 104.519 52.5951 104.58 52.6568C104.642 52.7185 104.677 52.8021 104.677 52.8894V52.8894Z" fill="#F2F2F2"/>
<path d="M103.697 54.5471H96.3234V54.8765H103.697V54.5471Z" fill="#E6E6E6"/>
<path d="M103.687 59.3935C101.22 60.4121 98.7254 60.4233 96.2035 59.3935V57.0732C98.6313 56.2598 101.259 56.2598 103.687 57.0732V59.3935Z" fill="#E6E6E6"/>
<path d="M62.3581 23.9164C67.8661 23.9164 72.3311 19.4621 72.3311 13.9675C72.3311 8.47295 67.8661 4.01871 62.3581 4.01871C56.8502 4.01871 52.3851 8.47295 52.3851 13.9675C52.3851 19.4621 56.8502 23.9164 62.3581 23.9164Z" fill="#FEB8B8"/>
<path d="M71.673 5.38453C70.182 2.96917 67.848 1.18938 65.1204 0.38777L63.896 1.27906V0.121746C63.241 0.021729 62.578 -0.0168003 61.9157 0.00666452L60.8594 0.960101V0.0858764C59.2954 0.279752 57.7887 0.794787 56.4342 1.5985C55.0797 2.40222 53.9069 3.47719 52.9896 4.75562C50.6957 8.05457 50.3085 12.6441 52.5647 15.9696C53.184 14.0707 53.9357 12.2891 54.5552 10.3905C55.042 10.4567 55.5354 10.4591 56.0228 10.3976L56.7763 8.64358L56.9868 10.3234C59.3224 10.1204 62.7867 9.6747 65.0008 9.26636L64.7855 7.97765L66.0736 9.04848C66.752 8.89274 67.1547 8.75138 67.1215 8.6434C68.7682 11.2918 70.7836 12.9832 72.4301 15.6316C73.0556 11.8973 73.7754 8.79222 71.673 5.38453Z" fill="#2F2E41"/>
<path d="M83.8072 39.5513C83.4643 37.4931 83.1105 35.3954 82.1517 33.5413C81.5214 32.3268 80.5211 31.1695 79.1725 30.9293C78.9068 30.9057 78.6458 30.8454 78.3968 30.7502C78.0016 30.5603 72.6916 27.5364 71.8476 27.0097C71.123 26.5576 69.979 25.7204 69.4023 25.7204C68.822 25.7077 66.5969 26.2243 57.9124 25.5471C57.9124 25.5471 55.5267 26.4851 53.6806 27.6227C53.6526 27.6043 44.6669 32.4179 44.3293 32.4052C43.69 32.3784 43.0957 32.7867 42.7292 33.3009C42.3628 33.8151 42.1909 34.4517 42.0109 35.0672C43.9736 39.4274 45.7693 43.7931 47.7321 48.1533C47.824 48.3175 47.8729 48.5023 47.8741 48.6903C47.8346 48.8855 47.7511 49.0692 47.6299 49.2274C46.6673 50.7698 46.698 52.7099 46.8031 54.5228C46.9083 56.3356 47.0385 58.2506 46.2263 59.8755C46.0054 60.3216 45.7181 60.73 45.508 61.1761C45.016 62.1865 44.8382 65.4181 45.1256 66.5037L81.1304 67.5327C80.3563 65.4098 83.8072 39.5513 83.8072 39.5513Z" fill="#7028E5"/>
<path d="M38.8987 48.3466C38.8268 48.865 38.8196 49.3903 38.8772 49.9105L39.3932 57.3036C39.4416 58.0004 39.4893 58.6955 39.5549 59.3906C39.6787 60.7395 39.8637 62.0777 40.0932 63.414C40.0984 63.6037 40.1788 63.7836 40.3169 63.9143C40.4549 64.0449 40.6392 64.1156 40.8294 64.1108C43.101 64.5903 45.448 64.5711 47.7663 64.4405C51.304 64.2435 60.3547 63.8708 60.9077 63.1543C61.4606 62.4377 61.1384 61.2787 60.4174 60.6992C59.6964 60.1198 47.7527 58.7072 47.7527 58.7072C47.8694 57.7847 48.2214 56.9158 48.5554 56.0399C49.1553 54.4863 49.7155 52.8817 49.7263 51.2175C49.7371 49.5532 49.1085 47.8034 47.7419 46.85C46.6177 46.0673 45.1704 45.9221 43.8005 45.9543C42.8038 45.9829 41.0817 45.7446 40.1713 46.1334C39.4509 46.4499 39.0333 47.6429 38.8987 48.3466Z" fill="#FBBEBE"/>
<path d="M41.9071 35.2C41.7322 35.3827 41.5966 35.5991 41.5085 35.836C40.057 39.0994 39.1996 42.5945 38.9766 46.1578C38.9805 46.3316 38.9403 46.5035 38.8599 46.6577C38.7805 46.7602 38.6922 46.8555 38.5959 46.9425C38.512 47.0417 38.4484 47.1565 38.409 47.2803C38.3695 47.404 38.3548 47.5343 38.3659 47.6637C38.3769 47.7931 38.4133 47.9191 38.4731 48.0344C38.5329 48.1498 38.6149 48.2523 38.7144 48.336C38.7308 48.3497 38.7475 48.3629 38.7647 48.3756C39.061 47.8194 39.7702 47.6375 40.4007 47.5892C43.4193 47.351 46.3678 48.7519 49.3954 48.6462C49.1818 47.9099 48.8746 47.2024 48.7004 46.4572C47.93 43.1485 49.8515 39.5461 48.6735 36.3592C48.4382 35.7214 48.045 35.0945 47.4255 34.815C47.169 34.7118 46.9005 34.6409 46.6264 34.604C45.8614 34.4661 44.3385 33.8767 43.5988 34.1132C43.3258 34.2011 43.2181 34.4571 42.9918 34.6119C42.6481 34.8309 42.192 34.9115 41.9071 35.2Z" fill="#7028E5"/>
<path d="M83.8287 46.1334C82.9183 45.7446 81.1962 45.9829 80.1995 45.9543C78.8296 45.9221 77.3823 46.0673 76.2581 46.85C74.8915 47.8034 74.2629 49.5532 74.2737 51.2175C74.2845 52.8817 74.8447 54.4863 75.4446 56.0399C75.7786 56.9158 76.1306 57.7847 76.2473 58.7072C76.2473 58.7072 64.3036 60.1198 63.5826 60.6992C62.8616 61.2787 62.5394 62.4377 63.0923 63.1543C63.6453 63.8708 80.899 64.5903 83.1706 64.1108C83.3608 64.1156 83.5451 64.0449 83.6831 63.9143C83.8212 63.7836 83.9016 63.6037 83.9068 63.414C84.1363 62.0777 84.3213 60.7395 84.4451 59.3906C84.5107 58.6955 84.5584 58.0004 84.6068 57.3036L85.1228 49.9105C85.1804 49.3903 85.1732 48.865 85.1013 48.3466C84.9667 47.6429 84.5491 46.4499 83.8287 46.1334Z" fill="#FBBEBE"/>
<path d="M81.0082 34.6119C80.7819 34.4571 80.6742 34.2011 80.4012 34.1132C79.6616 33.8767 78.1386 34.4661 77.3736 34.604C77.0995 34.6409 76.8311 34.7118 76.5746 34.815C75.9551 35.0945 75.5619 35.7214 75.3266 36.3592C74.1486 39.5461 76.0701 43.1485 75.2996 46.4572C75.1255 47.2024 74.8182 47.9099 74.6046 48.6462C77.6322 48.7519 80.5808 47.351 83.5994 47.5892C84.2298 47.6375 84.9391 47.8194 85.2353 48.3756C85.2525 48.3629 85.2693 48.3497 85.2856 48.336C85.3851 48.2523 85.4671 48.1498 85.5269 48.0345C85.5867 47.9191 85.6232 47.7931 85.6342 47.6637C85.6452 47.5343 85.6306 47.404 85.5911 47.2803C85.5516 47.1565 85.4881 47.0417 85.4042 46.9425C85.3079 46.8555 85.2195 46.7602 85.1402 46.6577C85.0597 46.5035 85.0196 46.3316 85.0235 46.1578C84.8004 42.5945 83.9431 39.0994 82.4915 35.836C82.4035 35.5991 82.2679 35.3827 82.093 35.2C81.808 34.9115 81.352 34.8309 81.0082 34.6119Z" fill="#7028E5"/>
<path d="M59.4044 64.4638C60.891 64.4638 62.0961 63.2616 62.0961 61.7787C62.0961 60.2957 60.891 59.0935 59.4044 59.0935C57.9178 59.0935 56.7127 60.2957 56.7127 61.7787C56.7127 63.2616 57.9178 64.4638 59.4044 64.4638Z" fill="#FBBEBE"/>
<path d="M65.3647 64.4638C66.8513 64.4638 68.0564 63.2616 68.0564 61.7787C68.0564 60.2957 66.8513 59.0935 65.3647 59.0935C63.8781 59.0935 62.673 60.2957 62.673 61.7787C62.673 63.2616 63.8781 64.4638 65.3647 64.4638Z" fill="#FBBEBE"/>
<path d="M81.9799 67.8294H44.9999C44.5681 67.8289 44.1542 67.6576 43.8489 67.3531C43.5436 67.0485 43.3719 66.6356 43.3713 66.2049V43.8245C43.3719 43.3938 43.5436 42.9809 43.8489 42.6764C44.1542 42.3718 44.5681 42.2005 44.9999 42.2H81.9799C82.4117 42.2005 82.8256 42.3718 83.1309 42.6764C83.4362 42.9809 83.608 43.3938 83.6085 43.8245V66.2049C83.608 66.6356 83.4362 67.0485 83.1309 67.3531C82.8256 67.6576 82.4117 67.8289 81.9799 67.8294Z" fill="#3F3D56"/>
<path d="M63.4002 56.0896C63.9952 56.0896 64.4776 55.6083 64.4776 55.0147C64.4776 54.4211 63.9952 53.9399 63.4002 53.9399C62.8051 53.9399 62.3228 54.4211 62.3228 55.0147C62.3228 55.6083 62.8051 56.0896 63.4002 56.0896Z" fill="white"/>
<path d="M124 63.3152H0V67.1164H7.33446V68H116.668V67.1164H124V63.3152Z" fill="#F1F1F1"/>
<path d="M53.1873 17.6757C51.5848 17.6757 50.2858 16.2745 50.2858 14.5461V12.9812C50.2858 11.2528 51.5848 9.85162 53.1873 9.85162V17.6757H53.1873Z" fill="#7028E5"/>
<path d="M71.7067 9.85162C73.3092 9.85162 74.6082 11.2528 74.6082 12.9812V14.546C74.6082 16.2745 73.3092 17.6757 71.7067 17.6757V9.85162Z" fill="#7028E5"/>
<path d="M73.2271 13.2271H72.7668C72.7668 6.92975 68.0169 1.80643 62.1784 1.80643C56.34 1.80643 51.5901 6.92975 51.5901 13.2271H51.1298C51.1298 6.65594 56.0862 1.30988 62.1784 1.30988C68.2708 1.30988 73.2271 6.65594 73.2271 13.2271Z" fill="#7028E5"/>
</svg>
