<svg width="96" height="96" viewBox="0 0 96 96" fill="none" xmlns="http://www.w3.org/2000/svg">
<g clip-path="url(#clip0)">
<path d="M86.5573 49.9599C86.5698 61.8389 82.5705 73.2608 75.4001 81.8247C74.9679 82.3444 74.5239 82.8515 74.0683 83.3461C73.3741 84.1041 72.6567 84.8328 71.9159 85.5322C64.9859 92.0871 56.3346 95.7706 47.3577 95.9883C47.0586 95.9961 46.7583 96 46.457 96C39.2976 96 30.2929 91.6097 22.1211 85.5322C21.445 85.0294 20.775 84.5149 20.1109 83.9888C19.8005 83.7452 19.4916 83.4981 19.1842 83.2476C16.0325 80.6925 13.0409 77.8866 10.2314 74.8505C8.39196 72.8685 6.66704 70.7509 5.06763 68.5112C-1.21132 59.6191 -2.59623 51.6069 6.35547 49.9599C7.41532 49.7655 8.44394 49.5578 9.44133 49.3366C10.8861 49.0178 12.2687 48.6736 13.5893 48.3038C15.3681 47.8075 17.0393 47.2693 18.603 46.6892C19.1289 46.4948 19.6429 46.2966 20.1448 46.0944C27.5648 43.1023 32.5311 39.2005 35.9115 34.967C36.4849 34.2504 37.0135 33.5251 37.4974 32.7913C38.2376 31.6742 38.91 30.5 39.5098 29.2769C40.3377 27.5776 41.033 25.7975 41.5878 23.9575L41.6182 23.8564C44.3079 14.9488 43.4896 6.68647 46.457 3.92114C59.1413 -7.90085 74.9329 8.93476 82.345 28.7884C82.7186 29.7888 83.07 30.7952 83.3992 31.8077C83.5471 32.26 83.6897 32.7131 83.827 33.1671C84.1882 34.3502 84.5159 35.5363 84.8101 36.7255C84.923 37.179 85.0306 37.6321 85.1329 38.0848C85.2424 38.5733 85.3474 39.0606 85.4444 39.5478C86.1657 43.1153 86.5573 46.6335 86.5573 49.9599Z" fill="#F2F2F2"/>
<path d="M47.3577 95.9883C47.0586 95.9961 46.7583 96 46.457 96C39.2976 96 30.2929 91.6097 22.1211 85.5322C21.445 85.0294 20.775 84.5149 20.1109 83.9888L20.6933 79.9199L38.3247 77.2323L47.1737 85.0009L47.3577 95.9883Z" fill="#2F2E41"/>
<path d="M37.935 85.5324H37.865L37.9248 85.5233L37.935 85.5324Z" fill="#2F2E41"/>
<path d="M31.9212 31.7553C36.1801 31.7553 39.6327 27.7915 39.6327 22.9018C39.6327 18.0122 36.1801 14.0484 31.9212 14.0484C27.6623 14.0484 24.2097 18.0122 24.2097 22.9018C24.2097 27.7915 27.6623 31.7553 31.9212 31.7553Z" fill="#FFB6B6"/>
<path d="M38.6744 16.4106C38.6744 16.4106 40.6913 11.9839 36.254 11.5815C36.254 11.5815 32.4712 7.64181 28.6155 10.8612C28.6155 10.8612 26.5123 10.8612 25.3623 13.5936C25.3623 13.5936 23.7082 12.8734 23.3447 14.8009C23.3447 14.8009 22.1343 18.8252 23.3447 22.4471C24.555 26.069 24.957 26.4714 24.957 26.4714C24.957 26.4714 22.9682 18.8779 27.8092 18.4755C32.6503 18.0731 38.0676 14.5997 38.471 19.0264C38.8745 23.4531 39.4816 24.5438 39.4816 24.5438C39.4816 24.5438 43.3135 18.2216 38.6744 16.4106Z" fill="#2F2E41"/>
<path d="M51.8691 44.7208L51.8442 44.8711L51.5655 46.5609L49.6388 58.2494L49.5248 58.9375L49.2855 60.3928L48.9582 62.378L48.2324 66.7774L48.0247 68.0383L47.9469 68.5112L47.9198 68.6771L47.7042 69.982L47.6387 70.376L47.1127 74.8505L46.6534 78.7497L48.1907 80.5146L47.2741 81.5669L46.6726 85.5231L46.6737 85.5322H22.1211C21.1279 84.7935 20.1489 84.032 19.1842 83.2476L19.3863 81.5112C19.3863 81.5112 20.0816 78.4102 19.7892 78.0396C19.498 77.669 18.8592 77.0068 18.8592 77.0068L19.6639 74.8505L19.7757 74.5512L19.5883 70.0896L19.5838 69.982L19.5217 68.5112L19.5138 68.322L19.5014 68.0383L19.2633 62.378L19.2587 62.2847L19.1865 60.569L19.1188 58.9375L19.0894 58.2494L18.7994 51.3646L18.603 46.6892L18.4314 42.619L19.121 42.3507L26.4971 39.4727L29.5525 34.9126L35.9116 34.967L39.0245 34.9942L44.2188 40.5249L45.4005 41.1728L45.4096 41.178L46.2572 41.6432L48.4062 42.8211L50.6783 44.0677L51.8443 44.7066L51.8691 44.7208Z" fill="#CACACA"/>
<path d="M30.3742 72.2499C29.9082 72.4572 29.4083 72.5446 28.9097 72.5061C28.4111 72.4676 27.9259 72.304 27.4883 72.0268C27.0508 71.7497 26.6714 71.3658 26.377 70.9022C26.0827 70.4386 25.8804 69.9064 25.7845 69.3434L13.7573 67.3843L17.9383 61.9545L28.7186 64.6473C29.5532 64.525 30.3979 64.7585 31.0925 65.3035C31.7872 65.8485 32.2836 66.6672 32.4877 67.6043C32.6918 68.5414 32.5894 69.532 32.1998 70.3882C31.8103 71.2444 31.1608 71.9068 30.3742 72.2499V72.2499Z" fill="#FFB6B6"/>
<path d="M25.0117 62.378C24.7889 62.0538 24.4735 61.8302 24.1212 61.747L19.1865 60.569L18.6797 60.4485C18.3852 60.3779 18.107 60.2368 17.8633 60.0342C17.6196 59.8317 17.4158 59.5723 17.2655 59.2732C17.1095 58.9591 17.0151 58.6097 16.9889 58.2495C16.9654 57.9219 16.9996 57.5923 17.0894 57.2802L18.7994 51.3646L19.9089 47.5264C20.0433 47.0634 20.1227 46.5818 20.1448 46.0944C20.2066 44.7458 19.8431 43.4168 19.121 42.3508C18.4862 41.4138 17.6056 40.736 16.6095 40.4178C15.6134 40.0995 14.5545 40.1575 13.5893 40.5832C13.5611 40.5949 13.5317 40.6078 13.5035 40.6208C12.8113 40.9381 12.1929 41.4359 11.6971 42.0749C11.2013 42.7138 10.8417 43.4764 10.6468 44.3023L9.44132 49.3366L6.9548 59.7151C6.70589 60.7549 6.6556 61.8442 6.80738 62.9084C6.95917 63.9726 7.30943 64.9866 7.8342 65.881C8.35898 66.7754 9.04587 67.529 9.84787 68.0903C10.6499 68.6517 11.548 69.0074 12.4809 69.1333L19.5883 70.0896L22.8773 70.5328C23.2577 70.5853 23.6412 70.4713 23.9517 70.2136C24.2621 69.9559 24.4765 69.5734 24.5523 69.1423C24.5576 69.1189 24.5618 69.0951 24.5647 69.0711L24.6437 68.5112L25.3131 63.797L25.3198 63.749C25.3547 63.5085 25.3453 63.2622 25.2922 63.0261C25.2392 62.7899 25.1436 62.5692 25.0117 62.378Z" fill="#CACACA"/>
<path d="M38.0351 72.4011C38.5219 72.5308 39.0276 72.5364 39.5165 72.4176C40.0054 72.2987 40.4656 72.0582 40.8648 71.713C41.264 71.3678 41.5924 70.9263 41.8269 70.4196C42.0614 69.913 42.1962 69.3534 42.222 68.7805L53.8884 64.8937L49.0823 60.1951L38.7404 64.6063C37.8991 64.6204 37.0916 64.9883 36.4708 65.6404C35.85 66.2924 35.4591 67.1832 35.3721 68.144C35.2852 69.1048 35.5083 70.0689 35.9991 70.8535C36.4899 71.6381 37.2143 72.1887 38.0351 72.4011V72.4011Z" fill="#FFB6B6"/>
<path d="M59.6808 56.1994L54.1321 41.5383C53.6782 40.3346 52.8677 39.3544 51.8442 38.7716C51.5279 38.5928 51.1956 38.4538 50.8532 38.3569C50.8002 38.3414 50.7471 38.3271 50.6941 38.3155C49.9681 38.1336 49.215 38.1496 48.4954 38.3621C47.8375 38.5562 47.2227 38.9072 46.691 39.3924C46.1593 39.8776 45.7226 40.486 45.4095 41.178C45.4061 41.1838 45.4031 41.1898 45.4005 41.1961C45.0507 41.9729 44.8647 42.8332 44.8575 43.7076C44.8502 44.582 45.0219 45.4462 45.3587 46.2305L45.4276 46.3886L49.3487 55.4297C49.4826 55.7389 49.558 56.077 49.57 56.422C49.5821 56.767 49.5305 57.111 49.4186 57.4315C49.3066 57.752 49.137 58.0417 48.9207 58.2816C48.7044 58.5215 48.4464 58.7062 48.1635 58.8235L47.8881 58.9376L42.9354 60.9915C42.5638 61.1437 42.2581 61.4556 42.0827 61.8614C41.9074 62.2672 41.876 62.7353 41.9952 63.1672L42.0076 63.2125L43.3959 68.313C43.4027 68.3363 43.4095 68.3596 43.4174 68.3829C43.4296 68.427 43.4447 68.4698 43.4625 68.5112C43.6101 68.8912 43.8709 69.1982 44.198 69.377C44.5251 69.5559 44.897 69.5949 45.247 69.487L47.9197 68.6771L48.4649 68.5112L55.3669 66.4185C56.275 66.1429 57.1206 65.6454 57.8457 64.9598C58.5708 64.2742 59.1583 63.4169 59.568 62.4464C59.9777 61.4759 60.1999 60.4153 60.2193 59.337C60.2388 58.2588 60.0551 57.1885 59.6808 56.1994L59.6808 56.1994Z" fill="#CACACA"/>
<path d="M5.06763 68.5112C6.66704 70.7509 8.39196 72.8685 10.2314 74.8505H61.2452C61.7366 74.8514 62.2078 75.076 62.5552 75.4752C62.9026 75.8743 63.098 76.4153 63.0985 76.9796L63.1718 91.8209C66.3101 90.1655 69.2491 88.0518 71.9159 85.5322C72.6563 84.8337 73.3738 84.105 74.0683 83.3461C74.5231 82.8511 74.9671 82.344 75.4001 81.8247C78.6467 77.9418 81.2757 73.4358 83.1678 68.5112H5.06763Z" fill="#3F3D56"/>
<path d="M75.4001 81.8248C74.9679 82.3444 74.5239 82.8515 74.0683 83.3461H63.2091V81.8248H75.4001Z" fill="white"/>
<path d="M51.7675 33.1671C51.7138 33.0534 51.6345 32.9585 51.5377 32.8923C51.4409 32.8262 51.3304 32.7913 51.2178 32.7913H14.2146C14.0487 32.7918 13.8897 32.8678 13.7725 33.0026C13.6553 33.1374 13.5894 33.32 13.5893 33.5105V58.9376H51.8442V33.5105C51.8448 33.3903 51.8184 33.272 51.7675 33.1671V33.1671Z" fill="#3F3D56"/>
<path d="M13.5558 58.2491V61.3869C13.5558 61.517 13.5781 61.6458 13.6215 61.7659C13.6648 61.8861 13.7284 61.9953 13.8085 62.0873C13.8886 62.1793 13.9837 62.2522 14.0884 62.302C14.1931 62.3518 14.3052 62.3774 14.4185 62.3774H28.5382V68.5698H28.3506C28.3359 68.5698 28.3213 68.5731 28.3077 68.5796C28.2941 68.5861 28.2818 68.5956 28.2713 68.6075C28.2609 68.6194 28.2527 68.6336 28.2471 68.6492C28.2414 68.6649 28.2385 68.6816 28.2385 68.6985V69.1292C28.2385 69.1461 28.2414 69.1628 28.2471 69.1784C28.2527 69.1941 28.2609 69.2082 28.2713 69.2202C28.2818 69.2321 28.2941 69.2416 28.3077 69.2481C28.3213 69.2545 28.3359 69.2579 28.3506 69.2579H37.1159C37.1306 69.2579 37.1452 69.2545 37.1588 69.2481C37.1724 69.2416 37.1847 69.2321 37.1951 69.2202C37.2055 69.2082 37.2138 69.1941 37.2194 69.1784C37.2251 69.1628 37.228 69.1461 37.228 69.1292V68.6985C37.228 68.6816 37.2251 68.6649 37.2194 68.6492C37.2138 68.6336 37.2055 68.6194 37.1951 68.6075C37.1847 68.5956 37.1724 68.5861 37.1588 68.5796C37.1452 68.5731 37.1306 68.5698 37.1159 68.5698H36.9283V62.3774H51.0479C51.1612 62.3774 51.2734 62.3518 51.3781 62.302C51.4828 62.2522 51.5779 62.1793 51.658 62.0873C51.7381 61.9953 51.8017 61.8861 51.845 61.7659C51.8884 61.6458 51.9107 61.517 51.9107 61.3869V58.2491H13.5558Z" fill="#3F3D56"/>
<path d="M41.2728 22.4181H40.7085C40.7085 17.5198 36.486 14.31 32.2263 14.3074C31.6068 14.3053 30.9885 14.3743 30.3809 14.5134C29.6969 14.6702 28.987 14.8581 28.2894 15.103C25.5388 16.071 22.9879 17.9422 22.9879 22.4181C22.9874 23.2873 23.0837 24.1531 23.2746 24.9942L22.7283 25.1575C22.5257 24.2629 22.4233 23.3424 22.4236 22.4181C22.4236 18.5072 23.8221 15.8209 26.2375 14.2193C27.5073 13.377 29.057 12.834 30.8324 12.5696C31.5712 12.4568 32.3181 12.4307 33.0616 12.4919C37.9601 12.8962 41.2728 17.2088 41.2728 22.4181Z" fill="#7028E5"/>
<path d="M42.2131 22.777L41.9907 20.8902C41.9359 20.4138 41.736 19.9749 41.4264 19.6514C41.2276 19.4405 40.9897 19.2842 40.7306 19.1945C40.4715 19.1047 40.198 19.0837 39.9308 19.1331L39.5776 19.1888C39.4809 19.2034 39.3877 19.2399 39.3034 19.2962C39.2191 19.3525 39.1454 19.4274 39.0866 19.5166C39.0272 19.6056 38.9838 19.7071 38.9588 19.8155C38.9338 19.9238 38.9277 20.0367 38.941 20.1477L39.4545 24.494C39.4757 24.6711 39.5448 24.8362 39.6522 24.9657C39.7596 25.0952 39.8997 25.1827 40.0527 25.2158C40.0981 25.2262 40.1442 25.2314 40.1904 25.2313C40.2237 25.2313 40.2568 25.2287 40.2898 25.2236L40.6848 25.1627C40.9257 25.126 41.1574 25.0331 41.3659 24.8898C41.5744 24.7465 41.7551 24.5558 41.897 24.3294C41.9275 24.2802 41.9569 24.2296 41.9839 24.1778C42.1955 23.7538 42.2762 23.2602 42.2131 22.777Z" fill="#7028E5"/>
<path d="M39.3496 19.2679C39.2459 19.3257 39.1558 19.4109 39.0866 19.5167C39.0272 19.6056 38.9838 19.7072 38.9588 19.8155C38.9338 19.9238 38.9277 20.0367 38.941 20.1477L39.4545 24.494C39.4757 24.6711 39.5448 24.8362 39.6522 24.9657C39.7596 25.0952 39.8997 25.1827 40.0527 25.2158L39.3496 19.2679Z" fill="white"/>
<path d="M42.2131 22.777L41.9907 20.8903C41.9359 20.4138 41.7359 19.9749 41.4263 19.6514L41.9377 23.9757C41.9453 24.0451 41.9609 24.113 41.9839 24.1778C42.1955 23.7538 42.2762 23.2602 42.2131 22.777V22.777Z" fill="#3F3D56"/>
<path d="M40.4557 24.1364C40.6101 24.1124 40.6878 23.6904 40.6291 23.194C40.5704 22.6976 40.3977 22.3147 40.2433 22.3387C40.0889 22.3628 40.0112 22.7847 40.0699 23.2811C40.1285 23.7775 40.3013 24.1605 40.4557 24.1364Z" fill="#3F3D56"/>
<path d="M40.1171 21.8039C40.2715 21.7799 40.3492 21.3579 40.2905 20.8615C40.2319 20.3651 40.0591 19.9821 39.9047 20.0062C39.7503 20.0302 39.6726 20.4522 39.7313 20.9486C39.7899 21.445 39.9627 21.828 40.1171 21.8039Z" fill="#3F3D56"/>
<path d="M42.2616 22.711C42.4161 22.687 42.4937 22.265 42.435 21.7686C42.3764 21.2722 42.2036 20.8892 42.0492 20.9133C41.8948 20.9374 41.8171 21.3593 41.8758 21.8557C41.9345 22.3521 42.1072 22.7351 42.2616 22.711Z" fill="#3F3D56"/>
<path d="M32.2263 14.3074C31.6068 14.3053 30.9885 14.3743 30.3809 14.5134C29.6969 14.6702 28.987 14.8581 28.2894 15.103C27.2002 15.0421 26.3989 14.7181 26.2375 14.2192C27.5072 13.377 29.057 12.834 30.8324 12.5696C31.5712 12.4568 32.3182 12.4307 33.0616 12.4919C33.1403 12.5449 33.2083 12.6164 33.2612 12.7017C33.3142 12.787 33.3507 12.8842 33.3686 12.9869C33.4216 13.4379 32.9735 13.9173 32.2263 14.3074Z" fill="#3F3D56"/>
<path d="M25.0207 26.9146L24.1516 22.7666C24.1207 22.617 24.0518 22.4812 23.9538 22.3763C23.8558 22.2714 23.733 22.2021 23.6008 22.177C23.5635 22.1704 23.5258 22.1669 23.488 22.1667C23.4347 22.1669 23.3817 22.1743 23.3299 22.1887L22.9936 22.282C22.5605 22.4022 22.1867 22.7148 21.9542 23.1511C21.7216 23.5875 21.6493 24.1119 21.7532 24.6093L22.1426 26.4702C22.2315 26.9083 22.4432 27.3007 22.7453 27.5872C22.7942 27.6326 22.8455 27.6745 22.8988 27.7129C23.088 27.849 23.299 27.9403 23.5194 27.9812C23.7399 28.0222 23.9652 28.012 24.1821 27.9513L24.5173 27.858C24.606 27.8343 24.6894 27.7897 24.7623 27.7271C24.8707 27.6364 24.9531 27.5107 24.9991 27.366C25.0452 27.2214 25.0527 27.0642 25.0207 26.9146Z" fill="#7028E5"/>
<path d="M23.1988 26.1428C23.3503 26.101 23.3904 25.6722 23.2883 25.1851C23.1862 24.6981 22.9806 24.3371 22.8291 24.379C22.6776 24.4209 22.6375 24.8497 22.7396 25.3367C22.8417 25.8238 23.0473 26.1847 23.1988 26.1428Z" fill="#3F3D56"/>
<path d="M22.0701 26.5316C22.2216 26.4897 22.2617 26.061 22.1596 25.5739C22.0575 25.0868 21.8519 24.7259 21.7004 24.7678C21.5489 24.8096 21.5088 25.2384 21.6109 25.7255C21.713 26.2126 21.9186 26.5735 22.0701 26.5316Z" fill="#3F3D56"/>
<path d="M25.076 26.8991L24.2069 22.7511C24.1731 22.5892 24.0984 22.4423 23.9922 22.3289C23.886 22.2155 23.753 22.1406 23.6099 22.1135L24.7961 27.779C24.9133 27.6805 25.0024 27.5443 25.0522 27.3877C25.102 27.2311 25.1103 27.0611 25.076 26.8991V26.8991Z" fill="white"/>
<path d="M21.9495 23.7878C21.9256 23.6724 21.8806 23.5642 21.8175 23.4703C21.6953 23.8335 21.6729 24.231 21.7532 24.6093L22.1426 26.4702C22.2315 26.9082 22.4432 27.3007 22.7453 27.5872L21.9495 23.7878Z" fill="#3F3D56"/>
</g>
<defs>
<clipPath id="clip0">
<rect width="96" height="96" fill="white"/>
</clipPath>
</defs>
</svg>
